# xmcd
#
# Track frame offsets:
#	150
#	12495
#	25242
#	39195
#	51469
#	66017
#	78424
#	92340
#	105968
#	117838
#	129743
#	142606
#	153964
#	164811
#	176355
#	188544
#	200849
#	213380
#	226441
#	239767
#	252782
#	264415
#	276668
#	288699
#
# Disc length: 4023 seconds
#
# Revision: 1
# Processed by: cddbd v1.5.2PL0 Copyright (c) Steve Scherf et al.
# Submitted via: audiograbber 1.83.01
#
DISCID=560fb518
DTITLE=Cliff Carlisle - Cliff Carlisle - Vol.2 - When I Feel Froggie I'm Gonna 
DTITLE=Hop - CD 1
DYEAR=2006
DGENRE=Country
TTITLE0=T for Texas
TTITLE1=Down in the Jailhouse on My Knees
TTITLE2=Blue Yodel No.6
TTITLE3=Just a Lonely Hobo
TTITLE4=Virginia Blues
TTITLE5=On My Way to Lonesome Valley
TTITLE6=I'm Lonely and Blue
TTITLE7=Never No Mo' Blues
TTITLE8=Crazy Blues
TTITLE9=Hobo Jack's Last Ride
TTITLE10=Alone and Lonesome
TTITLE11=When You Wore a Tulip
TTITLE12=Birmingham Jail
TTITLE13=Shine on, Harvest Moon
TTITLE14=The Plea of a Mother
TTITLE15=When the Cactus Is in Bloom
TTITLE16=She's Waiting for Me
TTITLE17=The Cowboy Song
TTITLE18=Childhood Dreams
TTITLE19=The Fatal Ruin
TTITLE20=Nobody Wants Me
TTITLE21=Memories That Make Me Cry
TTITLE22=Desert Blues
TTITLE23=Childhood Dreams
EXTD=JSP 7768 - CD 1
EXTT0=
EXTT1=
EXTT2=
EXTT3=
EXTT4=
EXTT5=
EXTT6=
EXTT7=
EXTT8=
EXTT9=
EXTT10=
EXTT11=
EXTT12=
EXTT13=
EXTT14=
EXTT15=
EXTT16=
EXTT17=
EXTT18=
EXTT19=
EXTT20=
EXTT21=
EXTT22=
EXTT23=
PLAYORDER=
